<svg xmlns="http://www.w3.org/2000/svg" width="255" height="217" viewBox="0 0 255 217" fill="none">
  <circle cx="12.5" cy="12.5" r="12.5" fill="#3b5d50" opacity="0.3"/>
  <circle cx="12.5" cy="62.5" r="12.5" fill="#3b5d50" opacity="0.3"/>
  <circle cx="12.5" cy="112.5" r="12.5" fill="#3b5d50" opacity="0.3"/>
  <circle cx="12.5" cy="162.5" r="12.5" fill="#3b5d50" opacity="0.3"/>
  <circle cx="62.5" cy="12.5" r="12.5" fill="#3b5d50" opacity="0.3"/>
  <circle cx="62.5" cy="62.5" r="12.5" fill="#3b5d50" opacity="0.3"/>
  <circle cx="62.5" cy="112.5" r="12.5" fill="#3b5d50" opacity="0.3"/>
  <circle cx="62.5" cy="162.5" r="12.5" fill="#3b5d50" opacity="0.3"/>
  <circle cx="112.5" cy="12.5" r="12.5" fill="#3b5d50" opacity="0.3"/>
  <circle cx="112.5" cy="62.5" r="12.5" fill="#3b5d50" opacity="0.3"/>
  <circle cx="112.5" cy="112.5" r="12.5" fill="#3b5d50" opacity="0.3"/>
  <circle cx="112.5" cy="162.5" r="12.5" fill="#3b5d50" opacity="0.3"/>
  <circle cx="162.5" cy="12.5" r="12.5" fill="#3b5d50" opacity="0.3"/>
  <circle cx="162.5" cy="62.5" r="12.5" fill="#3b5d50" opacity="0.3"/>
  <circle cx="162.5" cy="112.5" r="12.5" fill="#3b5d50" opacity="0.3"/>
  <circle cx="162.5" cy="162.5" r="12.5" fill="#3b5d50" opacity="0.3"/>
  <circle cx="212.5" cy="12.5" r="12.5" fill="#3b5d50" opacity="0.3"/>
  <circle cx="212.5" cy="62.5" r="12.5" fill="#3b5d50" opacity="0.3"/>
  <circle cx="212.5" cy="112.5" r="12.5" fill="#3b5d50" opacity="0.3"/>
  <circle cx="212.5" cy="162.5" r="12.5" fill="#3b5d50" opacity="0.3"/>
</svg>
